<svg width="96" height="96" viewBox="0 0 96 96" fill="none" xmlns="http://www.w3.org/2000/svg">
  <defs>
    <linearGradient id="shortcut-draft-bg" x1="12" y1="10" x2="84" y2="82" gradientUnits="userSpaceOnUse">
      <stop stop-color="#A855F7" />
      <stop offset="1" stop-color="#F43F5E" />
    </linearGradient>
    <linearGradient id="shortcut-draft-ink" x1="30" y1="24" x2="74" y2="70" gradientUnits="userSpaceOnUse">
      <stop stop-color="#FFFFFF" stop-opacity="0.85" />
      <stop offset="1" stop-color="#FFE4F6" stop-opacity="0.55" />
    </linearGradient>
  </defs>
  <rect x="6" y="6" width="84" height="84" rx="26" fill="url(#shortcut-draft-bg)" />
  <path d="M34 62v-4.5c0-1.1.4-2.1 1.2-2.9l25.5-25.5a4.2 4.2 0 0 1 6 0l4.2 4.2a4.2 4.2 0 0 1 0 6L45.4 65.8c-.8.8-1.9 1.2-3 1.2H38a4 4 0 0 1-4-4Z" fill="url(#shortcut-draft-ink)" />
  <path d="M30 70h36" stroke="#FDF2F8" stroke-width="4" stroke-linecap="round" opacity="0.75" />
  <path d="M30 78h24" stroke="#FDF2F8" stroke-width="4" stroke-linecap="round" opacity="0.55" />
</svg>
