<svg width="192" height="192" viewBox="0 0 192 192" fill="none" xmlns="http://www.w3.org/2000/svg">
  <defs>
    <linearGradient id="icon192-bg" x1="16" y1="12" x2="176" y2="180" gradientUnits="userSpaceOnUse">
      <stop stop-color="#22D3EE" />
      <stop offset="1" stop-color="#6366F1" />
    </linearGradient>
    <linearGradient id="icon192-accent" x1="48" y1="40" x2="152" y2="152" gradientUnits="userSpaceOnUse">
      <stop stop-color="#A855F7" />
      <stop offset="1" stop-color="#F43F5E" />
    </linearGradient>
  </defs>
  <rect x="8" y="8" width="176" height="176" rx="44" fill="url(#icon192-bg)" opacity="0.95" />
  <path d="M96 44c-5.3 0-9.6 4.3-9.6 9.6V80H64c-4 0-7.2 3.2-7.2 7.2 0 3.6 2.7 6.6 6.2 7.1l21.2 3V108h-9.6c-4 0-7.2 3.2-7.2 7.2 0 3.6 2.6 6.5 6 7.1l10.8 1.9c-4 6.5-11.4 11.4-20 14-3.7 1.1-6.2 4.4-6.2 8.2v4.6c0 4.7 3.8 8.5 8.5 8.5H126c4.7 0 8.5-3.8 8.5-8.5v-4.6c0-3.7-2.5-7.1-6.2-8.2-8.6-2.6-16-7.5-20-14l10.8-1.9c3.5-.6 6-3.5 6-7.1 0-4-3.2-7.2-7.2-7.2h-9.6V97.3l21.2-3c3.5-.5 6.2-3.5 6.2-7.1 0-4-3.2-7.2-7.2-7.2h-22.4V53.6c0-5.3-4.3-9.6-9.6-9.6Zm0 79.2c4.5 8.3 12.4 15.1 22.8 19.5H73.2c10.4-4.4 18.3-11.2 22.8-19.5Z" fill="url(#icon192-accent)" opacity="0.85" />
  <circle cx="96" cy="80" r="12" fill="white" opacity="0.85" />
</svg>
