<svg width="512" height="512" viewBox="0 0 512 512" fill="none" xmlns="http://www.w3.org/2000/svg">
  <defs>
    <radialGradient id="maskable-bg" cx="0" cy="0" r="1" gradientUnits="userSpaceOnUse" gradientTransform="translate(256 256) rotate(90) scale(256)">
      <stop offset="0" stop-color="#1FBAD6" />
      <stop offset="1" stop-color="#2D1D70" />
    </radialGradient>
    <linearGradient id="maskable-accent" x1="156" y1="120" x2="372" y2="388" gradientUnits="userSpaceOnUse">
      <stop stop-color="#A855F7" />
      <stop offset="1" stop-color="#F43F5E" />
    </linearGradient>
    <linearGradient id="maskable-stroke" x1="128" y1="96" x2="384" y2="416" gradientUnits="userSpaceOnUse">
      <stop stop-color="#C3E7FF" stop-opacity="0.9" />
      <stop offset="1" stop-color="#B5B0FF" stop-opacity="0.6" />
    </linearGradient>
  </defs>
  <rect x="32" y="32" width="448" height="448" rx="200" fill="url(#maskable-bg)" />
  <rect x="72" y="72" width="368" height="368" rx="160" stroke="url(#maskable-stroke)" stroke-width="8" opacity="0.6" />
  <path d="M256 132c-12.6 0-22.8 10.2-22.8 22.8v70.2h-68c-12.6 0-22.8 10.2-22.8 22.8 0 11.8 8.5 21.5 19.9 22.5l70.9 6.5v34.3h-24.4c-12.6 0-22.8 10.2-22.8 22.8 0 10.9 7.7 20.3 18.4 22.4l28.8 5.6c-9 16.7-24.9 29.7-43.6 37.1-7.4 3-12.2 10.2-12.2 18.1v10.6c0 11.7 9.5 21.2 21.2 21.2h165.7c11.7 0 21.2-9.5 21.2-21.2v-10.6c0-7.8-4.8-15.1-12.2-18.1-18.7-7.4-34.6-20.4-43.6-37.1l28.8-5.6c10.7-2.1 18.4-11.5 18.4-22.4 0-12.6-10.2-22.8-22.8-22.8h-24.4v-34.3l70.9-6.5c11.4-1 19.9-10.7 19.9-22.5 0-12.6-10.2-22.8-22.8-22.8h-68v-70.2c0-12.6-10.2-22.8-22.8-22.8Zm0 190.5c14.5 24.6 38.4 43.1 68.1 52.6H187.9c29.7-9.5 53.6-28 68.1-52.6Z" fill="url(#maskable-accent)" />
  <circle cx="256" cy="224" r="34" fill="white" opacity="0.9" />
</svg>
