<svg width="512" height="512" viewBox="0 0 512 512" fill="none" xmlns="http://www.w3.org/2000/svg">
  <defs>
    <linearGradient id="icon512-bg" x1="64" y1="40" x2="448" y2="472" gradientUnits="userSpaceOnUse">
      <stop stop-color="#22D3EE" />
      <stop offset="1" stop-color="#6366F1" />
    </linearGradient>
    <linearGradient id="icon512-accent" x1="124" y1="108" x2="388" y2="384" gradientUnits="userSpaceOnUse">
      <stop stop-color="#A855F7" />
      <stop offset="1" stop-color="#F43F5E" />
    </linearGradient>
  </defs>
  <rect x="40" y="40" width="432" height="432" rx="120" fill="url(#icon512-bg)" opacity="0.95" />
  <path d="M256 120c-14.1 0-25.6 11.5-25.6 25.6V208h-64c-10.6 0-19.2 8.6-19.2 19.2 0 9.6 6.9 17.5 16.2 19l56 8V280h-25.6c-10.6 0-19.2 8.6-19.2 19.2 0 9.6 7 17.2 16 18.9l29.4 5.2c-10.2 18.3-29.6 32.3-51.9 38.9-9.6 2.8-16.1 11.8-16.1 21.8v12c0 12.2 9.9 22.1 22.1 22.1h199.2c12.2 0 22.1-9.9 22.1-22.1v-12c0-10-6.5-19-16.1-21.8-22.3-6.6-41.7-20.6-51.9-38.9l29.4-5.2c9-1.7 16-9.3 16-18.9 0-10.6-8.6-19.2-19.2-19.2H288v-25.8l56-8c9.3-1.5 16.2-9.4 16.2-19 0-10.6-8.6-19.2-19.2-19.2h-64v-62.4c0-14.1-11.5-25.6-25.6-25.6Zm0 211.2c12 21.8 33.2 39.5 60.8 50.9H195.2c27.6-11.4 48.8-29.1 60.8-50.9Z" fill="url(#icon512-accent)" opacity="0.85" />
  <circle cx="256" cy="208" r="32" fill="white" opacity="0.88" />
</svg>
